<?xml version="1.0" encoding="UTF-8"?>
<svg xmlns="http://www.w3.org/2000/svg" viewBox="0 0 50 50" enable-background="new 0 0 50 50">
    <path style="text-indent:0;text-align:start;line-height:normal;text-transform:none;block-progression:tb;-inkscape-font-specification:Bitstream Vera Sans" d="M 5 2 C 3.3545455 2 2 3.3545455 2 5 L 2 45 C 2 46.645455 3.3545455 48 5 48 L 45 48 C 46.645455 48 48 46.645455 48 45 L 48 5 C 48 3.3545455 46.645455 2 45 2 L 5 2 z M 5 4 L 45 4 C 45.554545 4 46 4.4454545 46 5 L 46 45 C 46 45.554545 45.554545 46 45 46 L 5 46 C 4.4454545 46 4 45.554545 4 45 L 4 5 C 4 4.4454545 4.4454545 4 5 4 z M 22 11 C 15.936713 11 11 15.936713 11 22 C 11 28.063287 15.936713 33 22 33 C 24.652688 33 27.09764 32.039524 29 30.46875 L 29.03125 30.46875 L 37.78125 39.21875 L 39.21875 37.78125 L 30.46875 29.03125 L 30.46875 29 C 32.039524 27.09764 33 24.652688 33 22 C 33 15.936713 28.063287 11 22 11 z M 22 13 C 26.982407 13 31 17.017593 31 22 C 31 26.982407 26.982407 31 22 31 C 17.017593 31 13 26.982407 13 22 C 13 17.017593 17.017593 13 22 13 z" overflow="visible" enable-background="accumulate" font-family="Bitstream Vera Sans"/>
</svg>